# xmcd CD database generated by RipIT
#
# Track frame offsets:
# 150
# 13508
# 25658
# 41441
# 58867
# 68612
# 85424
# 105710
# 121630
# 137852
# 155498
# 173819
#
# Disc length: 2596 seconds
#
# Revision: 0
# Processed by: cddbd v1.5.2PL0 Copyright (c) Steve Scherf et al.
# Submitted via: RipIT 3.8.0 www.suwald.com/ripit/ripit.html on 2010-07-19 at 18:13
#
DISCID=930a220c
DTITLE=Nick Cave and The Bad Seeds - Dig!!! Lazarus Dig!!!
DYEAR=2008
DGENRE=Rock
TTITLE0=Dig, Lazarus, Dig!!!
TTITLE1=Today's Lesson
TTITLE2=Moonland
TTITLE3=Night of the Lotus Eaters
TTITLE4=Albert Goes West
TTITLE5=We Call Upon the Author
TTITLE6=Hold on to Yourself
TTITLE7=Lie Down Here (& Be My Girl)
TTITLE8=Jesus of the Moon
TTITLE9=Midnight Man
TTITLE10=More News From Nowhere
TTITLE11=DATA
EXTD=
EXTT0=
EXTT1=
EXTT2=
EXTT3=
EXTT4=
EXTT5=
EXTT6=
EXTT7=
EXTT8=
EXTT9=
EXTT10=
EXTT11=
PLAYORDER=
